<svg width="166" height="32" viewBox="0 0 166 32" fill="none" xmlns="http://www.w3.org/2000/svg">
<g clip-path="url(#clip0_371_14590)">
<path d="M24 0C28.4183 0 32 3.58172 32 8V24C32 28.4183 28.4183 32 24 32H8C3.58172 32 0 28.4183 0 24V8C0 3.58172 3.58172 0 8 0H24ZM16 7C11.0294 7 7 11.0294 7 16C7 20.9706 11.0294 25 16 25C20.9706 25 25 20.9706 25 16C25 11.0294 20.9706 7 16 7Z" fill="#5B6AF0"/>
</g>
<path d="M47.627 8.78125V23H44.707V8.78125H47.627ZM52.002 8.78125V11.0762H40.4004V8.78125H52.002ZM57.5148 20.6172V15.9102C57.5148 15.5716 57.4595 15.2819 57.3488 15.041C57.2382 14.7936 57.0656 14.6016 56.8313 14.4648C56.6034 14.3281 56.3072 14.2598 55.9426 14.2598C55.6301 14.2598 55.3599 14.3151 55.132 14.4258C54.9042 14.5299 54.7284 14.6829 54.6047 14.8848C54.481 15.0801 54.4191 15.3112 54.4191 15.5781H51.6066C51.6066 15.1289 51.7108 14.7025 51.9191 14.2988C52.1275 13.8952 52.4302 13.5404 52.8273 13.2344C53.2245 12.9219 53.6965 12.6777 54.2434 12.502C54.7967 12.3262 55.4152 12.2383 56.0988 12.2383C56.9191 12.2383 57.6483 12.375 58.2863 12.6484C58.9243 12.9219 59.4257 13.332 59.7902 13.8789C60.1613 14.4258 60.3469 15.1094 60.3469 15.9297V20.4512C60.3469 21.0306 60.3827 21.5059 60.4543 21.877C60.5259 22.2415 60.6301 22.5605 60.7668 22.834V23H57.925C57.7883 22.7135 57.6841 22.3555 57.6125 21.9258C57.5474 21.4896 57.5148 21.0534 57.5148 20.6172ZM57.8859 16.5645L57.9055 18.1562H56.3332C55.9621 18.1562 55.6398 18.1986 55.3664 18.2832C55.093 18.3678 54.8684 18.4883 54.6926 18.6445C54.5168 18.7943 54.3866 18.9701 54.302 19.1719C54.2238 19.3737 54.1848 19.5951 54.1848 19.8359C54.1848 20.0768 54.2401 20.2949 54.3508 20.4902C54.4615 20.679 54.621 20.8288 54.8293 20.9395C55.0376 21.0436 55.2818 21.0957 55.5617 21.0957C55.9849 21.0957 56.3527 21.0111 56.6652 20.8418C56.9777 20.6725 57.2186 20.4642 57.3879 20.2168C57.5637 19.9694 57.6548 19.735 57.6613 19.5137L58.4035 20.7051C58.2993 20.972 58.1561 21.2487 57.9738 21.5352C57.798 21.8216 57.5734 22.0918 57.3 22.3457C57.0266 22.5931 56.6978 22.7982 56.3137 22.9609C55.9296 23.1172 55.4738 23.1953 54.9465 23.1953C54.2759 23.1953 53.6672 23.0618 53.1203 22.7949C52.5799 22.5215 52.1503 22.1471 51.8313 21.6719C51.5188 21.1901 51.3625 20.6432 51.3625 20.0312C51.3625 19.4779 51.4667 18.9863 51.675 18.5566C51.8833 18.127 52.1893 17.7656 52.593 17.4727C53.0031 17.1732 53.5142 16.9486 54.1262 16.7988C54.7382 16.6426 55.4478 16.5645 56.2551 16.5645H57.8859ZM68.0277 20.0801C68.0277 19.8783 67.9691 19.696 67.852 19.5332C67.7348 19.3704 67.5167 19.2207 67.1977 19.084C66.8852 18.9408 66.4327 18.8105 65.8402 18.6934C65.3064 18.5762 64.8083 18.4297 64.3461 18.2539C63.8904 18.0716 63.4932 17.8535 63.1547 17.5996C62.8227 17.3457 62.5622 17.0462 62.3734 16.7012C62.1846 16.3496 62.0902 15.9492 62.0902 15.5C62.0902 15.0573 62.1846 14.6406 62.3734 14.25C62.5688 13.8594 62.8454 13.5143 63.2035 13.2148C63.5681 12.9089 64.0108 12.6712 64.5316 12.502C65.059 12.3262 65.6514 12.2383 66.309 12.2383C67.227 12.2383 68.0147 12.3848 68.6723 12.6777C69.3363 12.9707 69.8441 13.3743 70.1957 13.8887C70.5538 14.3965 70.7328 14.9759 70.7328 15.627H67.9203C67.9203 15.3535 67.8617 15.1094 67.7445 14.8945C67.6339 14.6732 67.4581 14.5007 67.2172 14.377C66.9828 14.2467 66.6768 14.1816 66.2992 14.1816C65.9867 14.1816 65.7165 14.237 65.4887 14.3477C65.2608 14.4518 65.085 14.5951 64.9613 14.7773C64.8441 14.9531 64.7855 15.1484 64.7855 15.3633C64.7855 15.526 64.8181 15.6725 64.8832 15.8027C64.9548 15.9264 65.0688 16.0404 65.225 16.1445C65.3813 16.2487 65.5831 16.3464 65.8305 16.4375C66.0844 16.5221 66.3969 16.6003 66.768 16.6719C67.5297 16.8281 68.21 17.0332 68.809 17.2871C69.4079 17.5345 69.8832 17.873 70.2348 18.3027C70.5863 18.7259 70.7621 19.2826 70.7621 19.9727C70.7621 20.4414 70.6579 20.8711 70.4496 21.2617C70.2413 21.6523 69.9418 21.9941 69.5512 22.2871C69.1605 22.5736 68.6918 22.7982 68.1449 22.9609C67.6046 23.1172 66.9958 23.1953 66.3188 23.1953C65.3357 23.1953 64.5023 23.0195 63.8188 22.668C63.1417 22.3164 62.6273 21.8704 62.2758 21.3301C61.9307 20.7832 61.7582 20.2233 61.7582 19.6504H64.4242C64.4372 20.0345 64.5349 20.3438 64.7172 20.5781C64.906 20.8125 65.1436 20.9818 65.4301 21.0859C65.723 21.1901 66.0388 21.2422 66.3773 21.2422C66.7419 21.2422 67.0447 21.1934 67.2855 21.0957C67.5264 20.9915 67.7087 20.8548 67.8324 20.6855C67.9626 20.5098 68.0277 20.3079 68.0277 20.0801ZM75.2008 7.99023V23H72.3883V7.99023H75.2008ZM81.8609 12.4336L77.2711 17.668L74.8102 20.1582L73.7848 18.127L75.7379 15.6465L78.482 12.4336H81.8609ZM78.941 23L75.816 18.1172L77.7594 16.418L82.1832 23H78.941ZM89.166 8.78125H91.6465L95.2988 19.2207L98.9512 8.78125H101.432L96.2949 23H94.3027L89.166 8.78125ZM87.8281 8.78125H90.2988L90.748 18.957V23H87.8281V8.78125ZM100.299 8.78125H102.779V23H99.8496V18.957L100.299 8.78125ZM110.675 20.6172V15.9102C110.675 15.5716 110.62 15.2819 110.509 15.041C110.398 14.7936 110.226 14.6016 109.991 14.4648C109.764 14.3281 109.467 14.2598 109.103 14.2598C108.79 14.2598 108.52 14.3151 108.292 14.4258C108.064 14.5299 107.889 14.6829 107.765 14.8848C107.641 15.0801 107.579 15.3112 107.579 15.5781H104.767C104.767 15.1289 104.871 14.7025 105.079 14.2988C105.288 13.8952 105.59 13.5404 105.987 13.2344C106.385 12.9219 106.857 12.6777 107.404 12.502C107.957 12.3262 108.575 12.2383 109.259 12.2383C110.079 12.2383 110.808 12.375 111.446 12.6484C112.085 12.9219 112.586 13.332 112.95 13.8789C113.321 14.4258 113.507 15.1094 113.507 15.9297V20.4512C113.507 21.0306 113.543 21.5059 113.614 21.877C113.686 22.2415 113.79 22.5605 113.927 22.834V23H111.085C110.948 22.7135 110.844 22.3555 110.773 21.9258C110.708 21.4896 110.675 21.0534 110.675 20.6172ZM111.046 16.5645L111.066 18.1562H109.493C109.122 18.1562 108.8 18.1986 108.527 18.2832C108.253 18.3678 108.029 18.4883 107.853 18.6445C107.677 18.7943 107.547 18.9701 107.462 19.1719C107.384 19.3737 107.345 19.5951 107.345 19.8359C107.345 20.0768 107.4 20.2949 107.511 20.4902C107.622 20.679 107.781 20.8288 107.989 20.9395C108.198 21.0436 108.442 21.0957 108.722 21.0957C109.145 21.0957 109.513 21.0111 109.825 20.8418C110.138 20.6725 110.379 20.4642 110.548 20.2168C110.724 19.9694 110.815 19.735 110.821 19.5137L111.564 20.7051C111.46 20.972 111.316 21.2487 111.134 21.5352C110.958 21.8216 110.734 22.0918 110.46 22.3457C110.187 22.5931 109.858 22.7982 109.474 22.9609C109.09 23.1172 108.634 23.1953 108.107 23.1953C107.436 23.1953 106.827 23.0618 106.28 22.7949C105.74 22.5215 105.31 22.1471 104.991 21.6719C104.679 21.1901 104.523 20.6432 104.523 20.0312C104.523 19.4779 104.627 18.9863 104.835 18.5566C105.043 18.127 105.349 17.7656 105.753 17.4727C106.163 17.1732 106.674 16.9486 107.286 16.7988C107.898 16.6426 108.608 16.5645 109.415 16.5645H111.046ZM118.229 14.6895V23H115.416V12.4336H118.053L118.229 14.6895ZM117.819 17.3457H117.057C117.057 16.5645 117.158 15.8613 117.36 15.2363C117.562 14.6048 117.845 14.0677 118.209 13.625C118.574 13.1758 119.007 12.834 119.508 12.5996C120.016 12.3587 120.582 12.2383 121.207 12.2383C121.702 12.2383 122.155 12.3099 122.565 12.4531C122.975 12.5964 123.327 12.8242 123.62 13.1367C123.919 13.4492 124.147 13.8626 124.303 14.377C124.466 14.8913 124.547 15.5195 124.547 16.2617V23H121.715V16.252C121.715 15.7832 121.65 15.4186 121.52 15.1582C121.39 14.8978 121.198 14.7155 120.944 14.6113C120.696 14.5007 120.39 14.4453 120.026 14.4453C119.648 14.4453 119.319 14.5202 119.039 14.6699C118.766 14.8197 118.538 15.028 118.356 15.2949C118.18 15.5553 118.047 15.8613 117.955 16.2129C117.864 16.5645 117.819 16.9421 117.819 17.3457ZM132.189 20.6172V15.9102C132.189 15.5716 132.134 15.2819 132.023 15.041C131.912 14.7936 131.74 14.6016 131.505 14.4648C131.278 14.3281 130.981 14.2598 130.617 14.2598C130.304 14.2598 130.034 14.3151 129.806 14.4258C129.578 14.5299 129.403 14.6829 129.279 14.8848C129.155 15.0801 129.093 15.3112 129.093 15.5781H126.281C126.281 15.1289 126.385 14.7025 126.593 14.2988C126.802 13.8952 127.104 13.5404 127.502 13.2344C127.899 12.9219 128.371 12.6777 128.918 12.502C129.471 12.3262 130.089 12.2383 130.773 12.2383C131.593 12.2383 132.323 12.375 132.961 12.6484C133.599 12.9219 134.1 13.332 134.464 13.8789C134.836 14.4258 135.021 15.1094 135.021 15.9297V20.4512C135.021 21.0306 135.057 21.5059 135.129 21.877C135.2 22.2415 135.304 22.5605 135.441 22.834V23H132.599C132.463 22.7135 132.358 22.3555 132.287 21.9258C132.222 21.4896 132.189 21.0534 132.189 20.6172ZM132.56 16.5645L132.58 18.1562H131.007C130.636 18.1562 130.314 18.1986 130.041 18.2832C129.767 18.3678 129.543 18.4883 129.367 18.6445C129.191 18.7943 129.061 18.9701 128.976 19.1719C128.898 19.3737 128.859 19.5951 128.859 19.8359C128.859 20.0768 128.914 20.2949 129.025 20.4902C129.136 20.679 129.295 20.8288 129.504 20.9395C129.712 21.0436 129.956 21.0957 130.236 21.0957C130.659 21.0957 131.027 21.0111 131.339 20.8418C131.652 20.6725 131.893 20.4642 132.062 20.2168C132.238 19.9694 132.329 19.735 132.336 19.5137L133.078 20.7051C132.974 20.972 132.83 21.2487 132.648 21.5352C132.472 21.8216 132.248 22.0918 131.974 22.3457C131.701 22.5931 131.372 22.7982 130.988 22.9609C130.604 23.1172 130.148 23.1953 129.621 23.1953C128.95 23.1953 128.341 23.0618 127.795 22.7949C127.254 22.5215 126.824 22.1471 126.505 21.6719C126.193 21.1901 126.037 20.6432 126.037 20.0312C126.037 19.4779 126.141 18.9863 126.349 18.5566C126.558 18.127 126.864 17.7656 127.267 17.4727C127.677 17.1732 128.188 16.9486 128.8 16.7988C129.412 16.6426 130.122 16.5645 130.929 16.5645H132.56ZM143.679 12.4336H146.227V22.6484C146.227 23.612 146.012 24.429 145.583 25.0996C145.16 25.7767 144.567 26.2878 143.805 26.6328C143.044 26.9844 142.158 27.1602 141.149 27.1602C140.707 27.1602 140.238 27.1016 139.743 26.9844C139.255 26.8672 138.786 26.6849 138.337 26.4375C137.894 26.1901 137.523 25.8776 137.223 25.5L138.464 23.8398C138.789 24.2174 139.167 24.5104 139.596 24.7188C140.026 24.9336 140.501 25.041 141.022 25.041C141.53 25.041 141.96 24.9466 142.311 24.7578C142.663 24.5755 142.933 24.3053 143.122 23.9473C143.311 23.5957 143.405 23.1693 143.405 22.668V14.875L143.679 12.4336ZM136.569 17.8438V17.6387C136.569 16.8314 136.667 16.099 136.862 15.4414C137.064 14.7773 137.347 14.2077 137.712 13.7324C138.083 13.2572 138.532 12.8893 139.059 12.6289C139.587 12.3685 140.182 12.2383 140.846 12.2383C141.55 12.2383 142.139 12.3685 142.614 12.6289C143.089 12.8893 143.48 13.2604 143.786 13.7422C144.092 14.2174 144.33 14.7806 144.499 15.4316C144.675 16.0762 144.811 16.7826 144.909 17.5508V18C144.811 18.7357 144.665 19.4193 144.47 20.0508C144.274 20.6823 144.017 21.2357 143.698 21.7109C143.379 22.1797 142.982 22.5443 142.507 22.8047C142.038 23.0651 141.478 23.1953 140.827 23.1953C140.176 23.1953 139.587 23.0618 139.059 22.7949C138.539 22.528 138.093 22.1536 137.721 21.6719C137.35 21.1901 137.064 20.6237 136.862 19.9727C136.667 19.3216 136.569 18.612 136.569 17.8438ZM139.382 17.6387V17.8438C139.382 18.2799 139.424 18.6868 139.509 19.0645C139.593 19.4421 139.723 19.7773 139.899 20.0703C140.082 20.3568 140.306 20.5814 140.573 20.7441C140.846 20.9004 141.169 20.9785 141.54 20.9785C142.054 20.9785 142.474 20.8711 142.8 20.6562C143.125 20.4349 143.369 20.1322 143.532 19.748C143.695 19.3639 143.789 18.9212 143.815 18.4199V17.1406C143.802 16.7305 143.747 16.3626 143.649 16.0371C143.552 15.7051 143.415 15.4219 143.239 15.1875C143.063 14.9531 142.835 14.7708 142.555 14.6406C142.276 14.5104 141.943 14.4453 141.559 14.4453C141.188 14.4453 140.866 14.5299 140.593 14.6992C140.326 14.862 140.101 15.0866 139.919 15.373C139.743 15.6595 139.61 15.998 139.518 16.3887C139.427 16.7728 139.382 17.1895 139.382 17.6387ZM153.078 23.1953C152.258 23.1953 151.522 23.0651 150.871 22.8047C150.22 22.5378 149.667 22.1699 149.211 21.7012C148.762 21.2324 148.417 20.6888 148.176 20.0703C147.935 19.4453 147.814 18.7812 147.814 18.0781V17.6875C147.814 16.8867 147.928 16.1543 148.156 15.4902C148.384 14.8262 148.71 14.25 149.133 13.7617C149.562 13.2734 150.083 12.8991 150.695 12.6387C151.307 12.3717 151.997 12.2383 152.766 12.2383C153.514 12.2383 154.178 12.362 154.758 12.6094C155.337 12.8568 155.822 13.2083 156.213 13.6641C156.61 14.1198 156.91 14.6667 157.111 15.3047C157.313 15.9362 157.414 16.6393 157.414 17.4141V18.5859H149.016V16.7109H154.65V16.4961C154.65 16.1055 154.579 15.7572 154.436 15.4512C154.299 15.1387 154.09 14.8913 153.811 14.709C153.531 14.5267 153.173 14.4355 152.736 14.4355C152.365 14.4355 152.046 14.5169 151.779 14.6797C151.512 14.8424 151.294 15.0703 151.125 15.3633C150.962 15.6562 150.839 16.0013 150.754 16.3984C150.676 16.7891 150.637 17.2188 150.637 17.6875V18.0781C150.637 18.5013 150.695 18.8919 150.812 19.25C150.936 19.6081 151.109 19.9173 151.33 20.1777C151.558 20.4382 151.831 20.64 152.15 20.7832C152.476 20.9264 152.844 20.998 153.254 20.998C153.762 20.998 154.234 20.9004 154.67 20.7051C155.113 20.5033 155.493 20.2005 155.812 19.7969L157.18 21.2812C156.958 21.6003 156.656 21.9062 156.271 22.1992C155.894 22.4922 155.438 22.7331 154.904 22.9219C154.37 23.1042 153.762 23.1953 153.078 23.1953ZM161.628 14.7383V23H158.816V12.4336H161.462L161.628 14.7383ZM164.812 12.3652L164.763 14.9727C164.626 14.9531 164.46 14.9368 164.265 14.9238C164.076 14.9043 163.904 14.8945 163.747 14.8945C163.35 14.8945 163.005 14.9466 162.712 15.0508C162.426 15.1484 162.185 15.2949 161.989 15.4902C161.801 15.6855 161.657 15.9232 161.56 16.2031C161.469 16.4831 161.417 16.8021 161.404 17.1602L160.837 16.9844C160.837 16.3008 160.905 15.6725 161.042 15.0996C161.179 14.5202 161.377 14.0156 161.638 13.5859C161.905 13.1562 162.23 12.8242 162.614 12.5898C162.999 12.3555 163.438 12.2383 163.933 12.2383C164.089 12.2383 164.249 12.2513 164.411 12.2773C164.574 12.2969 164.708 12.3262 164.812 12.3652Z" fill="white"/>
<defs>
<clipPath id="clip0_371_14590">
<rect width="32" height="32" fill="white"/>
</clipPath>
</defs>
</svg>
